<svg xmlns:dc="http://purl.org/dc/elements/1.1/" xmlns:cc="http://creativecommons.org/ns#" xmlns:rdf="http://www.w3.org/1999/02/22-rdf-syntax-ns#" xmlns:svg="http://www.w3.org/2000/svg" xmlns="http://www.w3.org/2000/svg" xmlns:sodipodi="http://sodipodi.sourceforge.net/DTD/sodipodi-0.dtd" xmlns:inkscape="http://www.inkscape.org/namespaces/inkscape" version="1.1" x="0px" y="0px" viewBox="0 0 100 125"><g transform="translate(0,-952.36218)"><path style="text-indent:0;text-transform:none;direction:ltr;block-progression:tb;baseline-shift:baseline;color:#000000;enable-background:accumulate;" d="m 8.031199,976.36217 c -1.0914,0 -2.0312,0.8965 -2.0312,2 l 0,48.00003 c 0,1.1035 0.9398,2 2.0312,2 l 83.937602,0 c 1.0914,0 2.0312,-0.8965 2.0312,-2 l 0,-48.00003 c 0,-1.1035 -0.9399,-2 -2.0312,-2 l -83.937602,0 z m -0.031,2 c 0,-0.01 -0.012,0 0.031,0 l 83.937602,0 c 0.043,0 0.031,-0.01 0.031,0 l 0,2.5 -42.000002,31.25003 -42,-31.25003 0,-2.5 z m 0,4.9688 41.4062,30.81243 a 1.0001,1.0001 0 0 0 1.1876,0 l 41.406002,-30.81243 0,43.03123 c 0,0.01 0.012,0 -0.031,0 l -83.937602,0 c -0.043,0 -0.031,0.01 -0.031,0 l 0,-43.03123 z" fill="#000000" fill-opacity="1" stroke="none" marker="none" visibility="visible" display="inline" overflow="visible"/></g></svg>
