<svg xmlns="http://www.w3.org/2000/svg" data-name="Livello 1" viewBox="0 0 100 125" x="0px" y="0px"><title>icon_noun</title><path d="M80.65,45.12a6.9,6.9,0,0,0-6.8-5.7h-3.6V35.65A4.64,4.64,0,0,0,65.61,31H63a4.64,4.64,0,0,0-4.64,4.63v3.76H41.46V35.65A4.64,4.64,0,0,0,36.82,31H34.24a4.64,4.64,0,0,0-4.63,4.63v3.76H26a6.9,6.9,0,0,0-6.8,5.74L14.4,78.08a6.91,6.91,0,0,0,6.8,8.11H78.65a6.91,6.91,0,0,0,6.8-8.09Zm1.41,37a4.44,4.44,0,0,1-3.41,1.59H21.2a4.45,4.45,0,0,1-4.37-5.25l4.8-32.93A4.44,4.44,0,0,1,26,41.87h6.06V35.65a2.18,2.18,0,0,1,2.17-2.17h2.59A2.18,2.18,0,0,1,39,35.65v6.22H60.85V35.65A2.18,2.18,0,0,1,63,33.48h2.58a2.18,2.18,0,0,1,2.17,2.17v6.22h6.06a4.43,4.43,0,0,1,4.37,3.63l4.8,33v0A4.44,4.44,0,0,1,82.06,82.14Z" style="" fill="#1d1d1b"/><path d="M83.1,16.77a186.37,186.37,0,0,0-66.22,0A14.55,14.55,0,0,0,5,31l0,6.65a2.65,2.65,0,0,0,2.74,2.74h10.4a2.74,2.74,0,0,0,2.74-2.7l.14-4.41a3.94,3.94,0,0,1,3.14-3.5,112.7,112.7,0,0,1,51.41,0,4.43,4.43,0,0,1,3.32,3.47v4.41a2.65,2.65,0,0,0,2.74,2.74H92.26A2.75,2.75,0,0,0,95,37.64V31A14.55,14.55,0,0,0,83.1,16.77Zm9.44,20.86a.29.29,0,0,1-.28.28H81.67c-.23,0-.28-.06-.28-.28V33.1l0-.24a6.9,6.9,0,0,0-5.16-5.49,114.57,114.57,0,0,0-52.53,0,6.43,6.43,0,0,0-5.07,5.7l-.15,4.58a.29.29,0,0,1-.28.28H7.77c-.23,0-.28-.05-.28-.29l0-6.64a12.08,12.08,0,0,1,9.88-11.79,183.93,183.93,0,0,1,65.32,0A12.08,12.08,0,0,1,92.54,31Z" style="" fill="#1d1d1b"/><path d="M62.16,50.29l0,0,0,0a17.23,17.23,0,0,0-24.33,0l0,0,0,0a17.23,17.23,0,0,0,0,24.33l0,0,0,0a17.23,17.23,0,0,0,24.33,0l0,0,0,0a17.23,17.23,0,0,0,0-24.33ZM60.49,63.68h4.18A14.73,14.73,0,0,1,61.21,72l-4.77-4.77A8,8,0,0,0,58,62.45a8.12,8.12,0,1,0-8.12,8.12A8,8,0,0,0,54.71,69l4.77,4.77a14.73,14.73,0,0,1-8.32,3.45V73a1.23,1.23,0,1,0-2.46,0v4.18a14.72,14.72,0,0,1-8.32-3.45l2.37-2.37A1.23,1.23,0,1,0,41,69.63L38.63,72a14.73,14.73,0,0,1-3.45-8.32h4.18a1.23,1.23,0,0,0,0-2.46H35.19a14.73,14.73,0,0,1,3.45-8.32L41,55.27a1.23,1.23,0,0,0,1.74-1.74l-2.37-2.37a14.72,14.72,0,0,1,8.32-3.45v4.18a1.23,1.23,0,0,0,2.46,0V47.71a14.73,14.73,0,0,1,8.32,3.45L57.1,53.54a1.23,1.23,0,0,0,1.74,1.74l2.37-2.37a14.73,14.73,0,0,1,3.45,8.32H60.49a1.23,1.23,0,0,0,0,2.46Zm-9.69-2.1a1.23,1.23,0,0,0-1.74,1.74l3.9,3.9a5.7,5.7,0,1,1,1.74-1.74Z" style="" fill="#1d1d1b"/></svg>
